HIERARCHY
ROOT Hips
{
	OFFSET 0.00000 0.00000 0.00000
	CHANNELS 6 Xposition Yposition Zposition Zrotation Yrotation Xrotation 
	JOINT LHipJoint
	{
		OFFSET 0 0 0
		CHANNELS 3 Zrotation Yrotation Xrotation
		JOINT LeftHip
		{
			OFFSET 1.55766 -1.60504 1.11378
			CHANNELS 3 Zrotation Yrotation Xrotation
			JOINT LeftKnee
			{
				OFFSET 2.29047 -6.29302 0.00000
				CHANNELS 3 Zrotation Yrotation Xrotation
				JOINT LeftAnkle
				{
					OFFSET 2.52265 -6.93093 0.00000
					CHANNELS 3 Zrotation Yrotation Xrotation
					JOINT LeftToe
					{
						OFFSET 0.17633 -0.48446 2.02656
						CHANNELS 3 Zrotation Yrotation Xrotation
						End Site
						{
							OFFSET 0.00000 -0.00000 1.04989
						}
					}
				}
			}
		}
	}
	JOINT RHipJoint
	{
		OFFSET 0 0 0
		CHANNELS 3 Zrotation Yrotation Xrotation
		JOINT RightHip
		{
			OFFSET -1.48599 -1.60504 1.11378
			CHANNELS 3 Zrotation Yrotation Xrotation
			JOINT RightKnee
			{
				OFFSET -2.27280 -6.24448 0.00000
				CHANNELS 3 Zrotation Yrotation Xrotation
				JOINT RightAnkle
				{
					OFFSET -2.50834 -6.89161 0.00000
					CHANNELS 3 Zrotation Yrotation Xrotation
					JOINT RightToe
					{
						OFFSET -0.26967 -0.74090 2.08741
						CHANNELS 3 Zrotation Yrotation Xrotation
						End Site
						{
							OFFSET -0.00000 -0.00000 1.10614
						}
					}
				}
			}
		}
	}
	JOINT lowerback
	{
		OFFSET 0 0 0
		CHANNELS 3 Zrotation Yrotation Xrotation
		JOINT Chest
		{
			OFFSET 0.06481 2.02437 -0.08472
			CHANNELS 3 Zrotation Yrotation Xrotation
			JOINT Chest2
			{
				OFFSET 0.00015 1.96711 0.18069
				CHANNELS 3 Zrotation Yrotation Xrotation
				JOINT lowerneck
				{
					OFFSET 0 0 0
					CHANNELS 3 Zrotation Yrotation Xrotation
					JOINT Neck
					{
						OFFSET -0.29961 1.68293 -0.13041
						CHANNELS 3 Zrotation Yrotation Xrotation
						JOINT Head
						{
							OFFSET 0.59697 1.61501 -0.14669
							CHANNELS 3 Zrotation Yrotation Xrotation
							End Site
							{
								OFFSET 0.22973 1.74906 -0.10148
							}
						}
					}
				}
				JOINT LeftCollar
				{
					OFFSET 0 0 0
					CHANNELS 3 Zrotation Yrotation Xrotation
					JOINT LeftShoulder
					{
						OFFSET 3.37968 1.02893 0.31147
CHANNELS 3 Zrotation Xrotation Yrotation
						JOINT LeftElbow
						{
OFFSET 0 -5.198070 -0.000000
CHANNELS 3 Zrotation Xrotation Yrotation
							JOINT LeftWrist
							{
OFFSET 0 -3.093700 -0.000000
CHANNELS 3 Zrotation Xrotation Yrotation
								JOINT lhand
								{
									OFFSET 0 0 0
CHANNELS 3 Zrotation Xrotation Yrotation
									JOINT LFingers
									{
OFFSET 0 -0.672630 -0.000000
CHANNELS 3 Zrotation Xrotation Yrotation
										End Site
										{
OFFSET 0 -0.542290 -0.000000
										}
									}
								}
								JOINT LThumb
								{
OFFSET 0 0.000000 0.000000
CHANNELS 3 Zrotation Xrotation Yrotation
									End Site
									{
OFFSET 0 -0.550570 0.550570
									}
								}
							}
						}
					}
				}
				JOINT RightCollar
				{
					OFFSET 0 0 0
					CHANNELS 3 Zrotation Yrotation Xrotation
					JOINT RightShoulder
					{
						OFFSET -3.38254 0.96355 -0.16120
CHANNELS 3 Zrotation Xrotation Yrotation
						JOINT RightElbow
						{
OFFSET 0 -5.452220 -0.000000
CHANNELS 3 Zrotation Xrotation Yrotation
							JOINT RightWrist
							{
OFFSET 0 -3.012840 -0.000000
CHANNELS 3 Zrotation Xrotation Yrotation
								JOINT rhand
								{
									OFFSET 0 0 0
CHANNELS 3 Zrotation Xrotation Yrotation
									JOINT RFingers
									{
OFFSET 0 -0.622300 -0.000000
CHANNELS 3 Zrotation Xrotation Yrotation
										End Site
										{
OFFSET 0 -0.501710 -0.000000
										}
									}
								}
								JOINT RThumb
								{
OFFSET 0 0.000000 0.000000
CHANNELS 3 Zrotation Xrotation Yrotation
									End Site
									{
OFFSET 0 -0.509370 0.509370
									}
								}
							}
						}
					}
				}
			}
		}
	}
}
MOTION
Frames: 5
Frame Time: 0.008333333333333333
-8.163699 16.864847 -27.742772 -185.747850 106.643058 -168.985748 0.000000 0.000000 0.000000 -19.265922 -0.384618 -23.138323 3.061475 10.793860 31.587866 1.158549 1.183215 -20.800377 2.950583 -10.612727 -30.986545 0.000000 0.000000 0.000000 18.663289 31.851352 -24.563699 -4.189738 -12.408598 37.193375 1.306044 26.017956 -8.645635 -0.079079 -1.808613 4.977095 -1.434076 -2.336082 -1.935543 0.033221 -2.940668 -9.199015 0.976886 -1.238437 -8.490384 -27.620895 -15.689726 30.411177 43.922833 -25.979350 -17.451044 21.162207 -16.627379 1.062655 0.000000 0.000000 0.000000 23.359644 27.665029 -40.720015 22.745299 -33.799676 7.000182 37.944406 -68.497815 17.700160 0.000000 0.000000 0.000000 -7.125000 0.000000 0.000000 6.395669 8.059200 5.470837 0.000000 0.000000 0.000000 -11.840206 8.185327 55.141732 -52.414202 -53.923964 -28.113970 -46.995204 -6.245700 29.704621 0.000000 0.000000 0.000000 7.125000 0.000000 0.000000 -24.439043 68.423550 14.056388
-8.162706 16.871144 -27.809468 -184.792302 111.209848 -168.262554 0.000000 0.000000 0.000000 -18.499848 -2.348529 -21.577511 3.111250 10.872972 31.852537 1.159953 -0.306779 -20.273711 3.486171 -11.439336 -33.781072 0.000000 0.000000 0.000000 19.196601 30.085324 -24.665831 -4.109340 -12.304467 36.817771 1.571314 27.190658 -7.814298 -0.120414 -2.235969 6.158285 -1.695203 -2.110076 -1.825012 0.074289 -2.658856 -9.265145 1.157263 -1.081122 -8.622068 -28.146420 -15.437662 30.572488 43.469919 -26.094314 -16.938566 20.979892 -16.629377 1.196587 0.000000 0.000000 0.000000 22.576495 29.395223 -40.572428 25.822031 -37.020808 8.784919 36.090225 -71.170742 18.290161 0.000000 0.000000 0.000000 -7.125000 0.000000 0.000000 5.122744 7.807020 4.397297 0.000000 0.000000 0.000000 -11.005013 7.551236 57.708426 -52.822797 -54.072279 -28.444590 -44.417477 -6.445559 30.285698 0.000000 0.000000 0.000000 7.125000 0.000000 0.000000 -19.884275 68.279221 11.286310
-8.155320 16.874248 -27.869193 -183.695112 115.736426 -167.305482 0.000000 0.000000 0.000000 -18.017115 -4.169107 -20.227697 3.140709 10.919385 32.008532 1.153572 -2.338363 -19.667718 4.225007 -12.449913 -37.348816 0.000000 0.000000 0.000000 19.332437 28.512092 -24.993818 -4.044922 -12.219912 36.514427 1.820838 28.385763 -7.285618 -0.124099 -2.270494 6.253780 -2.077648 -1.778626 -1.827599 -0.019961 -2.242685 -9.353961 1.250619 -0.852604 -8.722738 -28.577362 -15.311238 30.577900 43.062245 -26.296760 -16.443626 20.743412 -16.670364 1.381049 0.000000 0.000000 0.000000 21.627451 30.894417 -40.090820 29.238255 -40.219231 10.918806 34.297899 -73.431823 18.890767 0.000000 0.000000 0.000000 -7.125000 0.000000 0.000000 3.891131 7.522317 3.355899 0.000000 0.000000 0.000000 -9.832395 7.162572 60.066696 -53.601940 -54.348416 -29.076657 -42.425026 -7.178107 30.261907 0.000000 0.000000 0.000000 7.125000 0.000000 0.000000 -16.448698 67.629041 9.052346
-8.146270 16.872814 -27.909377 -182.790290 120.357810 -166.392902 0.000000 0.000000 0.000000 -17.699297 -5.668054 -19.183481 3.151100 10.935800 32.063600 1.136064 -4.701918 -19.143021 4.920944 -13.292041 -40.475646 0.000000 0.000000 0.000000 19.326984 27.330519 -25.466686 -3.991144 -12.148642 36.259884 1.974862 29.296832 -7.291907 -0.074857 -1.751961 4.821041 -2.725831 -1.335194 -2.070273 -0.090020 -1.672601 -9.418500 1.502341 -0.528056 -8.660637 -28.977420 -15.301723 30.256498 42.626096 -26.564842 -15.978442 20.401695 -16.712636 1.623265 0.000000 0.000000 0.000000 20.331390 32.032857 -39.180998 32.773136 -43.143908 13.270445 32.664068 -74.770403 19.512284 0.000000 0.000000 0.000000 -7.125000 0.000000 0.000000 2.761531 7.174126 2.397517 0.000000 0.000000 0.000000 -8.504406 6.890904 62.131443 -54.665151 -54.711514 -29.942626 -40.549779 -8.752455 29.678558 0.000000 0.000000 0.000000 7.125000 0.000000 0.000000 -13.433415 66.388952 6.989397
-8.142058 16.865285 -27.924870 -182.149476 125.005646 -165.690776 0.000000 0.000000 0.000000 -17.498391 -6.594471 -18.357171 3.134931 10.910406 31.978242 1.103906 -7.148384 -18.771636 5.413628 -13.834248 -42.579005 0.000000 0.000000 0.000000 19.418928 26.587823 -25.853408 -3.947492 -12.090240 36.051927 1.885491 29.434230 -8.267680 -0.010143 -0.524584 1.441761 -3.650603 -0.803690 -2.473523 -0.130012 -0.977805 -9.460208 1.935090 -0.120561 -8.498256 -29.255535 -15.315656 29.847759 42.169884 -26.754185 -15.603738 20.055161 -16.708790 1.797858 0.000000 0.000000 0.000000 18.909761 32.811438 -38.104463 36.207790 -45.646761 15.673753 31.230667 -75.228524 20.086959 0.000000 0.000000 0.000000 -7.125000 0.000000 0.000000 1.770995 6.834337 1.548191 0.000000 0.000000 0.000000 -7.020408 6.765633 63.825586 -55.860546 -55.101417 -30.920756 -38.317625 -11.143372 28.782962 0.000000 0.000000 0.000000 7.125000 0.000000 0.000000 -10.196956 64.706897 4.896387
